<svg width="0" height="0" class="hidden">
        
    <symbol version="1.0" xmlns="http://www.w3.org/2000/svg" preserveAspectRatio="xMidYMid meet" viewBox="0 0 512.000000 512.000000" id="queen">
        <g transform="translate(0.000000,512.000000) scale(0.100000,-0.100000)" stroke="none">
        <path d="M2451 3974 c-141 -51 -230 -167 -239 -311 -6 -99 17 -166 93 -269 7
    -11 -23 -46 -123 -147 l-133 -133 87 -69 c95 -77 192 -177 263 -272 37 -51
    135 -205 156 -248 3 -7 7 -7 10 0 19 39 118 196 155 247 58 80 196 220 283
    288 l69 53 -134 134 c-116 117 -131 135 -120 151 74 105 96 169 90 267 -8 125
    -82 234 -196 291 -72 35 -192 43 -261 18z"></path>
        <path d="M253 3116 c-103 -34 -177 -98 -221 -194 -68 -149 -20 -325 115 -426
    l53 -39 0 -293 0 -294 399 0 400 0 -29 63 c-58 128 -107 322 -125 497 l-6 55
    -99 46 -98 47 26 53 c24 47 27 66 27 149 0 76 -5 104 -22 142 -30 66 -102 140
    -169 172 -69 34 -184 44 -251 22z"></path>
        <path d="M4684 3121 c-96 -25 -195 -108 -237 -199 -17 -38 -22 -66 -22 -142 0
    -83 3 -102 27 -149 l26 -53 -98 -47 -99 -46 -6 -55 c-18 -175 -67 -369 -125
    -497 l-29 -63 400 0 399 0 0 294 0 293 53 39 c265 198 142 616 -186 630 -40 2
    -86 0 -103 -5z"></path>
        <path d="M1221 3048 c-125 -380 -101 -770 68 -1083 l48 -90 538 -3 538 -2 -7
    72 c-30 310 -148 563 -365 779 -185 186 -414 309 -691 374 -105 24 -105 24
    -129 -47z"></path>
        <path d="M3750 3089 c-248 -64 -449 -165 -608 -304 -250 -220 -395 -506 -428
    -842 l-7 -73 536 0 536 0 41 73 c176 316 206 703 84 1089 -29 91 -28 90 -154
    57z"></path>
        <path d="M200 1350 l0 -220 2360 0 2360 0 0 220 0 220 -2360 0 -2360 0 0 -220z"></path>
        </g>
    </symbol>
    <symbol version="1.0" xmlns="http://www.w3.org/2000/svg" preserveAspectRatio="xMidYMid meet" viewBox="0 0 512.000000 512.000000" id="king">
        <g transform="translate(0.000000,512.000000) scale(0.100000,-0.100000)"  stroke="none">
        <path d="M2487 4729 c-86 -57 -156 -193 -175 -342 l-7 -59 -78 -30 c-236 -91
        -318 -228 -204 -339 52 -50 176 -111 286 -141 l83 -22 -6 -65 c-12 -113 -45
        -222 -103 -341 -52 -105 -65 -124 -157 -216 -84 -83 -116 -108 -191 -146 -185
        -94 -326 -122 -600 -123 -210 0 -310 16 -484 77 -146 51 -217 94 -316 191
        l-89 88 80 32 c110 45 165 79 212 132 69 78 65 152 -12 228 -43 43 -140 98
        -218 124 -55 17 -58 20 -73 68 -57 174 -161 312 -282 374 -119 60 -161 4 -149
        -203 10 -178 31 -308 96 -615 123 -580 258 -1065 371 -1327 l18 -44 2072 2
        2072 3 29 70 c86 210 215 649 298 1015 159 702 196 1033 123 1105 -31 32 -112
        9 -195 -57 -75 -59 -162 -197 -203 -323 -15 -48 -19 -52 -63 -65 -76 -22 -177
        -77 -222 -121 -83 -81 -89 -154 -18 -234 47 -53 102 -87 212 -132 l80 -32 -89
        -88 c-126 -123 -248 -184 -485 -239 -213 -51 -542 -40 -743 22 -249 78 -450
        255 -546 480 -36 84 -68 207 -77 294 l-6 65 83 23 c227 62 361 173 335 275
        -18 72 -117 153 -253 205 l-78 30 -7 59 c-21 161 -92 292 -193 354 -42 27 -75
        24 -128 -12z"></path>
        <path d="M2020 3499 c-350 -49 -657 -131 -886 -238 -112 -53 -208 -111 -197
        -121 11 -10 121 -37 213 -51 88 -13 376 -7 460 11 245 51 411 166 510 352 l31
        58 -33 -1 c-18 -1 -62 -6 -98 -10z"></path>
            <path d="M2994 3462 c59 -116 169 -227 280 -284 56 -28 139 -56 221 -74 95
        -21 379 -30 475 -15 92 14 202 41 213 51 9 8 -71 59 -168 108 -222 109 -561
        204 -894 247 -165 22 -156 24 -127 -33z"></path>
            <path d="M444 1831 c-123 -75 -118 -249 8 -310 l44 -21 2064 0 2064 0 44 21
        c102 50 130 181 56 269 -55 65 121 60 -2166 60 -2022 0 -2084 -1 -2114 -19z"></path>
            <path d="M530 1100 l0 -220 2030 0 2030 0 0 220 0 220 -2030 0 -2030 0 0 -220z
        m654 -22 c15 -24 -3 -52 -37 -56 -33 -4 -53 28 -37 59 14 25 58 23 74 -3z
        m708 -3 c8 -19 8 -28 -2 -40 -25 -30 -80 -12 -80 25 0 44 63 55 82 15z m703
        -15 c0 -33 -2 -35 -35 -35 -29 0 -36 4 -38 23 -6 40 5 54 40 50 30 -3 33 -6
        33 -38z m709 18 c24 -39 -44 -79 -74 -43 -21 25 3 67 37 63 14 -2 31 -11 37
        -20z m706 2 c8 -14 8 -26 0 -40 -19 -35 -80 -20 -80 20 0 40 61 55 80 20z"></path>
        <path d="M475 695 c-52 -18 -101 -72 -115 -126 -24 -88 35 -185 125 -208 62
        -16 4088 -16 4150 0 91 23 149 121 124 212 -14 52 -72 111 -124 126 -29 8
        -621 11 -2080 11 -1732 -1 -2046 -3 -2080 -15z"></path>
        </g>
    </symbol>
    <symbol version="1.0" xmlns="http://www.w3.org/2000/svg" preserveAspectRatio="xMidYMid meet" viewBox="0 0 512.000000 512.000000" id="jack">
        <g transform="translate(0.000000,512.000000) scale(0.100000,-0.100000)" stroke="none">
            <path d="M2291 4604 l-263 -416 82 -1242 c45 -682 83 -1247 85 -1253 3 -10 40
                -13 138 -13 l134 0 6 92 c3 51 23 603 44 1226 21 622 40 1132 43 1132 3 0 22
                -507 43 -1127 21 -621 41 -1172 44 -1225 l6 -98 134 0 c98 0 135 3 138 12 2 7
                41 572 85 1254 l82 1241 -263 417 c-144 229 -265 416 -269 416 -4 0 -125 -187
                -269 -416z"></path>
            <path d="M1944 1527 c-2 -7 -3 -85 -2 -172 l3 -160 193 -3 192 -2 0 -248 c0
            -292 -5 -320 -85 -461 -62 -110 -85 -169 -85 -218 0 -108 102 -159 340 -170
            222 -10 390 27 437 96 43 64 28 133 -64 294 -77 136 -83 165 -83 459 l0 248
            193 2 192 3 0 170 0 170 -613 3 c-495 2 -614 0 -618 -11z"></path>
        </g>
    </symbol>
    <symbol version="1.0" xmlns="http://www.w3.org/2000/svg" preserveAspectRatio="xMidYMid meet" viewBox="0 0 512.000000 512.000000" id="hearts">
        <g transform="translate(0.000000,512.000000) scale(0.100000,-0.100000)"  stroke="none">
            <path d="M1233 4580 c-153 -17 -296 -61 -443 -136 -338 -172 -574 -484 -656
                -866 -25 -116 -25 -371 0 -488 39 -181 113 -349 219 -495 88 -121 1961 -1984
                2031 -2019 110 -55 239 -56 347 -1 40 20 258 230 995 962 520 515 973 972
                1007 1016 444 562 340 1362 -234 1787 -362 268 -860 317 -1277 125 -146 -68
                -236 -138 -448 -347 -110 -109 -204 -198 -209 -198 -5 0 -97 87 -204 193 -248
                244 -343 312 -547 391 -167 65 -408 96 -581 76z"></path>
        </g>
    </symbol>
    <symbol version="1.0" xmlns="http://www.w3.org/2000/svg" preserveAspectRatio="xMidYMid meet" viewBox="0 0 512.000000 512.000000" id="diamonds">
        <g transform="translate(0.000000,512.000000) scale(0.100000,-0.100000)"  stroke="none">
            <path d="M2490 5001 c-35 -11 -92 -40 -114 -60 -10 -9 -75 -101 -144 -206
                -261 -398 -505 -699 -827 -1020 -323 -324 -620 -564 -1020 -827 -104 -69 -197
                -134 -206 -144 -54 -62 -81 -174 -60 -251 23 -86 66 -130 216 -226 770 -489
                1407 -1119 1893 -1872 50 -77 104 -158 120 -180 56 -78 183 -122 277 -96 82
                22 131 64 201 173 306 478 601 841 964 1191 295 285 550 487 920 732 118 78
                222 151 231 161 43 50 64 108 64 184 0 65 -4 82 -30 129 -34 61 -43 68 -290
                230 -367 241 -635 460 -970 796 -383 382 -578 628 -922 1163 -65 102 -197 155
                -303 123z"></path>
        </g>
    </symbol>
    <symbol version="1.0" xmlns="http://www.w3.org/2000/svg" preserveAspectRatio="xMidYMid meet" viewBox="0 0 512.000000 512.000000" id="clubs">
        <g transform="translate(0.000000,512.000000) scale(0.100000,-0.100000)"  stroke="none">
        <path d="M2380 5105 c-429 -70 -785 -369 -923 -775 -44 -128 -59 -225 -60
    -370 -1 -257 68 -480 211 -678 29 -41 52 -76 50 -77 -2 -1 -37 3 -78 11 -41 7
    -123 13 -181 14 -309 1 -592 -120 -825 -354 -203 -202 -319 -443 -342 -709
    -58 -659 439 -1230 1100 -1264 298 -15 562 72 801 264 l67 54 0 -204 c0 -347
    -24 -433 -211 -759 -96 -167 -102 -209 -32 -246 31 -17 1175 -17 1206 0 70 37
    64 79 -32 246 -187 326 -211 412 -211 758 l0 204 80 -63 c148 -117 312 -195
    490 -234 128 -27 374 -25 495 5 306 76 538 236 709 486 219 320 260 741 107
    1096 -105 244 -330 479 -576 603 -81 40 -221 86 -313 102 -104 18 -272 19
    -372 1 -41 -8 -76 -12 -78 -11 -2 2 17 31 43 66 165 224 249 538 216 799 -37
    286 -145 507 -345 706 -173 171 -353 269 -587 320 -105 22 -305 27 -409 9z"></path>
        </g>
    </symbol>
    <symbol version="1.0" xmlns="http://www.w3.org/2000/svg" preserveAspectRatio="xMidYMid meet" viewBox="0 0 512.000000 512.000000" id="spades">
        <g transform="translate(0.000000,512.000000) scale(0.100000,-0.100000)"  stroke="none">
        <path d="M2505 5099 c-22 -12 -107 -65 -190 -117 -643 -408 -1236 -921 -1591
    -1375 -399 -511 -598 -1047 -555 -1496 45 -478 317 -875 746 -1089 193 -96
    372 -136 610 -135 215 0 366 32 553 118 39 19 72 33 72 31 0 -23 -139 -312
    -200 -416 -84 -144 -202 -303 -327 -444 -44 -49 -53 -66 -53 -97 0 -29 6 -42
    26 -58 27 -21 31 -21 965 -21 676 0 945 3 963 11 29 14 51 59 41 88 -3 12 -39
    58 -78 104 -133 152 -243 308 -341 483 -51 92 -134 269 -150 322 l-7 22 58
    -26 c93 -42 190 -73 298 -96 131 -27 368 -30 501 -5 326 59 637 249 834 507
    292 383 353 857 179 1375 -86 255 -274 587 -481 845 -257 322 -644 685 -1063
    1000 -272 204 -687 475 -743 486 -17 3 -41 -3 -67 -17z"></path>
        </g>
    </symbol>
    <symbol version="1.0" xmlns="http://www.w3.org/2000/svg" preserveAspectRatio="xMidYMid meet" viewBox="0 0 512.000000 512.000000" id="back">
        <g transform="translate(0.000000,512.000000) scale(0.100000,-0.100000)" fill="#4f772d" stroke="none">
        <path d="M876 5108 c-51 -14 -121 -84 -135 -134 -8 -27 -11 -763 -11 -2430 l0
    -2390 26 -52 c16 -31 41 -63 62 -77 l37 -25 1709 0 1710 0 36 25 c20 14 47 44
    61 68 l24 42 3 2399 c1 1680 -1 2410 -9 2438 -15 56 -83 121 -141 136 -62 16
    -3313 15 -3372 0z m364 -353 l245 -245 -240 -240 c-132 -132 -244 -240 -250
    -240 -5 0 -40 30 -77 67 l-68 67 0 84 0 84 70 72 69 71 114 -113 113 -113 19
    21 c19 21 18 21 -93 133 l-112 112 110 110 c104 104 109 110 93 127 -16 18
    -22 14 -128 -92 l-110 -110 -73 73 -72 72 0 121 c0 153 17 182 110 183 32 1
    52 -17 280 -244z m102 142 c-98 -99 -102 -104 -84 -120 17 -16 23 -11 122 88
    58 58 109 105 115 105 5 0 58 -48 117 -107 102 -102 109 -107 125 -90 17 16
    12 22 -80 115 -53 53 -97 101 -97 105 0 4 90 7 200 7 110 0 200 -3 200 -8 0
    -4 -103 -110 -229 -236 l-230 -229 -233 228 c-128 125 -234 232 -236 236 -2 5
    90 9 204 9 l209 0 -103 -103z m1098 96 c0 -4 -44 -52 -97 -105 -92 -93 -97
    -99 -80 -115 16 -17 23 -12 127 92 l110 110 110 -110 c109 -108 109 -109 130
    -90 l21 19 -103 103 -103 103 210 0 210 0 -238 -237 -237 -238 -237 238 -238
    237 208 0 c114 0 207 -3 207 -7z m912 -96 l-103 -103 21 -19 c21 -19 21 -18
    130 90 l110 110 110 -110 c104 -104 111 -109 127 -92 17 16 12 22 -80 115 -53
    53 -97 101 -97 105 0 4 90 7 200 7 110 0 200 -3 200 -8 0 -4 -104 -111 -230
    -237 l-230 -230 -238 238 -237 237 210 0 210 0 -103 -103z m904 70 c20 -23 24
    -39 24 -92 0 -35 -4 -66 -9 -69 -7 -5 -201 181 -201 192 0 2 36 2 81 0 74 -3
    83 -6 105 -31z m-2011 -217 l240 -240 -243 -242 -242 -243 -245 245 -245 245
    107 107 c59 60 112 108 118 108 6 0 60 -49 120 -110 l110 -110 -110 -110
    c-104 -104 -109 -111 -92 -127 16 -17 23 -12 127 92 l110 110 110 -110 c104
    -104 111 -109 127 -92 17 16 12 23 -92 127 l-110 110 110 110 c104 104 109
    111 92 127 -16 17 -23 12 -127 -92 l-110 -110 -110 110 c-60 60 -110 114 -110
    120 0 13 202 215 215 215 6 0 118 -108 250 -240z m1010 0 l240 -240 -240 -240
    c-132 -132 -244 -240 -250 -240 -6 0 -118 108 -250 240 l-240 240 240 240
    c132 132 244 240 250 240 6 0 118 -108 250 -240z m862 -98 l-107 -107 -110
    110 c-104 104 -111 109 -127 92 -17 -16 -12 -23 92 -127 l110 -110 -110 -110
    c-104 -104 -109 -111 -92 -127 16 -17 23 -12 127 92 l110 110 110 -110 c104
    -104 111 -109 127 -92 17 16 12 23 -92 127 l-110 110 106 106 c62 62 111 104
    118 100 7 -5 11 -73 11 -214 l0 -207 -135 -135 -135 -135 -243 243 -242 242
    238 238 238 238 112 -113 111 -113 -107 -108z m-3215 -194 l-52 -53 0 105 0
    105 52 -53 53 -52 -53 -52z m843 -208 l240 -240 -245 -245 -245 -245 -245 245
    -245 245 112 112 113 113 110 -110 c60 -60 110 -114 110 -120 0 -5 -47 -57
    -105 -115 -101 -101 -105 -107 -87 -123 17 -16 23 -11 127 93 l110 110 110
    -110 111 -111 19 21 c19 21 18 21 -90 130 l-110 110 110 110 c104 104 109 111
    92 127 -16 17 -23 12 -127 -92 l-110 -110 -112 110 c-62 61 -115 111 -117 113
    -8 4 212 222 224 222 6 0 118 -108 250 -240z m1003 -3 l242 -242 -243 -243
    -242 -242 -245 245 -245 245 240 240 c132 132 242 240 245 240 3 0 114 -109
    248 -243z m1007 3 l240 -240 -245 -245 -245 -245 -242 242 -243 243 242 242
    c134 134 245 243 248 243 3 0 113 -108 245 -240z m515 -5 c-10 -12 -10 -19 -2
    -27 16 -16 17 -404 1 -413 -6 -4 -8 -14 -4 -24 3 -9 -49 39 -117 106 l-123
    123 125 125 c114 114 154 151 120 110z m-3352 -178 l62 -63 -65 -64 -65 -64 0
    127 c0 70 1 127 3 127 1 0 31 -28 65 -63z m320 -320 l242 -242 -243 -243 -243
    -243 -72 73 -72 73 0 80 0 79 67 68 c37 38 72 68 78 68 6 0 57 -47 115 -105
    99 -99 105 -104 122 -88 18 16 14 22 -92 128 l-110 110 110 110 c104 104 109
    110 93 127 -16 18 -22 14 -123 -87 -58 -58 -110 -105 -115 -105 -5 0 -40 30
    -77 67 l-68 67 0 84 0 84 67 69 c36 38 69 69 72 69 3 0 115 -109 249 -243z
    m1004 6 c131 -131 238 -242 238 -248 0 -6 -108 -118 -240 -250 l-240 -240
    -245 245 -245 245 242 242 c134 134 245 243 248 243 3 0 112 -107 242 -237z
    m1006 -490 l-243 -243 -242 242 -243 243 242 242 243 243 242 -242 243 -243
    -242 -242z m899 595 l133 -133 0 -220 0 -220 -135 -135 -135 -135 -245 245
    -245 245 242 242 c134 134 245 243 248 243 3 0 64 -60 137 -132z m-3239 -301
    c23 -23 42 -47 42 -53 0 -11 -82 -94 -93 -94 -4 0 -7 43 -7 95 0 52 4 95 8 95
    4 0 27 -19 50 -43z m837 -797 c-132 -132 -244 -239 -248 -237 -5 1 -116 110
    -248 242 l-240 239 243 243 243 243 245 -245 245 -245 -240 -240z m1000 0
    l-245 -245 -242 243 -243 242 245 245 245 245 242 -242 243 -243 -245 -245z
    m1007 -2 l-242 -243 -245 245 -245 245 242 242 243 243 245 -245 245 -245
    -243 -242z m513 472 c-4 -6 -2 -17 5 -24 7 -10 9 -74 6 -213 -2 -109 -5 -206
    -7 -216 -2 -13 -35 14 -124 103 l-120 120 120 120 c115 115 134 133 120 110z
    m-3347 -163 l62 -63 -65 -64 -65 -64 0 127 c0 70 1 127 3 127 1 0 31 -28 65
    -63z m322 -812 l-245 -245 -72 72 -73 72 0 81 0 80 72 72 73 73 110 -110 111
    -111 19 21 c19 21 18 21 -90 130 l-110 110 110 110 c108 109 109 109 90 130
    l-19 21 -111 -111 -111 -111 -72 73 -72 72 0 80 0 81 72 72 73 73 245 -245
    245 -245 -245 -245z m2010 0 l-245 -245 -245 245 -245 245 245 245 245 245
    245 -245 245 -245 -245 -245z m-1005 485 l240 -240 -240 -240 c-132 -132 -243
    -239 -248 -237 -10 3 -477 469 -477 476 0 7 473 481 480 481 3 0 113 -108 245
    -240z m1902 108 l133 -133 0 -215 0 -215 -135 -135 -135 -135 -243 243 -242
    242 240 240 c132 132 242 240 245 240 3 0 64 -60 137 -132z m-3245 -400 l-52
    -53 0 105 0 105 52 -53 53 -52 -53 -52z m843 -208 l240 -240 -245 -245 -245
    -245 -242 242 -243 243 242 242 c134 134 245 243 248 243 3 0 113 -108 245
    -240z m1003 -3 l242 -242 -243 -243 -243 -243 -239 241 c-132 132 -242 243
    -245 246 -4 5 470 484 480 484 3 0 114 -109 248 -243z m1007 3 l240 -240 -245
    -245 -245 -245 -242 242 -243 243 242 242 c134 134 245 243 248 243 3 0 113
    -108 245 -240z m514 -17 c2 -10 5 -107 7 -216 3 -139 1 -203 -6 -213 -7 -7 -9
    -19 -5 -26 4 -7 -48 42 -116 109 l-124 123 120 120 c66 66 120 120 120 120 0
    0 2 -8 4 -17z m-3351 -166 l62 -63 -65 -64 -65 -64 0 127 c0 70 1 127 3 127 1
    0 31 -28 65 -63z m317 -807 l-246 -245 -69 71 -70 72 0 83 0 83 67 68 c37 38
    72 68 78 68 6 0 57 -47 115 -105 99 -99 105 -104 122 -88 18 16 14 22 -92 128
    l-110 110 110 110 c104 104 109 110 93 127 -16 18 -22 14 -123 -87 -58 -58
    -110 -105 -115 -105 -5 0 -40 30 -77 67 l-68 67 0 80 0 81 72 72 73 73 242
    -242 243 -243 -245 -245z m1007 493 c131 -131 238 -242 238 -248 0 -6 -108
    -118 -240 -250 l-240 -240 -245 245 -245 245 242 242 c134 134 245 243 248
    243 3 0 112 -107 242 -237z m1006 -490 c-133 -133 -243 -241 -245 -240 -1 1
    -111 110 -243 241 l-241 240 243 243 243 243 242 -242 243 -243 -242 -242z
    m899 595 l133 -133 0 -220 0 -220 -135 -135 -135 -135 -245 245 -245 245 242
    242 c134 134 245 243 248 243 3 0 64 -60 137 -132z m-3239 -301 c23 -23 42
    -47 42 -53 0 -11 -82 -94 -93 -94 -4 0 -7 43 -7 95 0 52 4 95 8 95 4 0 27 -19
    50 -43z m837 -797 c-132 -132 -244 -240 -250 -240 -6 0 -118 108 -250 240
    l-240 240 245 245 245 245 245 -245 245 -245 -240 -240z m1000 0 l-245 -245
    -242 243 -243 242 245 245 245 245 242 -242 243 -243 -245 -245z m1010 0
    c-132 -132 -244 -239 -248 -237 -5 1 -117 110 -248 242 l-240 239 243 243 243
    243 245 -245 245 -245 -240 -240z m509 466 c-3 -8 -1 -17 5 -21 16 -9 15 -397
    -1 -413 -8 -8 -8 -15 2 -29 8 -10 -45 39 -116 109 l-129 128 120 120 c66 66
    121 120 122 120 1 0 0 -6 -3 -14z m-3341 -164 l57 -58 -65 -64 -65 -64 0 122
    c0 67 4 122 8 122 4 0 33 -26 65 -58z m322 -322 l240 -240 -190 -190 -190
    -190 -101 0 c-136 0 -147 8 -152 115 l-4 77 73 74 74 74 110 -110 c106 -106
    112 -110 128 -92 16 17 11 23 -93 127 l-110 110 112 112 c111 112 112 112 93
    133 l-19 21 -113 -113 -114 -113 -69 71 -70 72 0 83 0 83 67 68 c37 38 72 68
    78 68 6 0 118 -108 250 -240z m1000 0 l240 -240 -190 -190 -190 -190 -110 0
    -110 0 -187 187 -188 188 242 242 c134 134 245 243 248 243 3 0 113 -108 245
    -240z m1010 0 l240 -240 -190 -190 -190 -190 -110 0 -110 0 -190 190 -190 190
    240 240 c132 132 244 240 250 240 6 0 118 -108 250 -240z m892 108 l133 -133
    0 -225 0 -225 -117 117 -118 118 110 110 c104 104 109 111 92 127 -16 17 -23
    12 -127 -92 l-110 -110 -110 110 c-104 104 -111 109 -127 92 -17 -16 -12 -23
    92 -127 l110 -110 -110 -110 c-104 -104 -109 -111 -92 -127 16 -17 23 -12 127
    92 l110 110 136 -136 136 -136 -16 -30 c-8 -17 -23 -33 -31 -37 -9 -3 -87 -6
    -173 -6 l-157 0 -190 190 -191 189 240 241 c133 132 243 240 246 240 3 0 64
    -60 137 -132z m-3245 -400 l-52 -53 0 105 0 105 52 -53 53 -52 -53 -52z m783
    -148 l180 -180 -105 0 -104 0 49 50 c47 47 48 51 32 67 -16 16 -21 14 -85 -50
    l-68 -67 -90 0 -90 0 -64 65 c-61 61 -65 64 -82 48 -18 -16 -17 -19 29 -65
    l47 -48 -99 0 -100 0 180 180 c99 99 182 180 185 180 3 0 86 -81 185 -180z
    m1000 0 l180 -180 -100 0 -99 0 47 48 48 48 -21 19 c-21 19 -21 18 -88 -48
    l-68 -67 -84 0 -84 0 -68 67 c-64 64 -69 66 -85 50 -16 -16 -15 -20 32 -67
    l49 -50 -104 0 -105 0 180 180 c99 99 182 180 185 180 3 0 86 -81 185 -180z
    m1010 0 l180 -180 -105 0 -104 0 49 50 c47 47 48 51 32 67 -16 16 -21 14 -85
    -50 l-68 -67 -84 0 -85 0 -68 67 c-66 65 -67 66 -87 48 -21 -19 -20 -19 27
    -67 l47 -48 -99 0 -100 0 180 180 c99 99 182 180 185 180 3 0 86 -81 185 -180z"></path>
        <path d="M2765 4750 c-19 -21 -18 -21 90 -130 l110 -110 -110 -110 c-108 -109
    -109 -109 -90 -130 l19 -21 111 111 110 110 110 -110 110 -110 20 20 20 20
    -110 110 -110 110 110 110 c110 110 110 110 90 130 l-20 20 -110 -110 -110
    -110 -110 110 -111 111 -19 -21z"></path>
        <path d="M2259 4244 c-11 -13 3 -30 97 -125 l109 -109 -110 -110 c-110 -110
    -110 -110 -90 -130 20 -20 20 -20 130 90 l110 110 110 -110 c106 -106 112
    -110 128 -92 16 17 11 23 -93 127 l-110 110 110 110 111 111 -21 19 c-21 19
    -21 18 -130 -90 l-110 -110 -108 108 c-59 59 -110 107 -113 107 -4 0 -12 -7
    -20 -16z"></path>
        <path d="M3267 4242 c-15 -17 -10 -24 93 -127 l110 -110 -110 -110 c-106 -106
    -110 -112 -92 -128 17 -16 23 -11 127 93 l110 110 110 -110 111 -111 19 21
    c19 21 18 21 -90 130 l-110 110 110 110 c104 104 109 111 92 127 -16 17 -23
    12 -127 -92 l-110 -110 -108 108 c-59 59 -110 107 -113 107 -3 0 -13 -8 -22
    -18z"></path>
        <path d="M1757 3742 c-15 -17 -10 -24 93 -127 l110 -110 -110 -110 -111 -111
    21 -19 c21 -19 21 -18 130 90 l110 110 110 -110 c109 -108 109 -109 130 -90
    l21 19 -111 111 -110 110 105 105 c58 58 105 110 105 116 0 6 -7 17 -16 25
    -13 11 -30 -3 -125 -97 l-109 -109 -108 108 c-59 59 -110 107 -113 107 -3 0
    -13 -8 -22 -18z"></path>
        <path d="M2767 3742 c-16 -17 -11 -23 88 -122 58 -58 105 -109 105 -115 0 -5
    -47 -57 -105 -115 -101 -101 -105 -107 -87 -123 17 -16 23 -11 122 88 58 58
    109 105 115 105 5 0 57 -47 115 -105 101 -101 107 -105 123 -87 16 17 11 23
    -88 122 -58 58 -105 109 -105 115 0 5 47 57 105 115 101 101 105 107 87 123
    -17 16 -23 11 -122 -88 -58 -58 -109 -105 -115 -105 -5 0 -57 47 -115 105
    -101 101 -107 105 -123 87z"></path>
        <path d="M3767 3742 c-15 -17 -10 -24 93 -127 l110 -110 -110 -110 -111 -111
    21 -19 c21 -19 21 -18 130 90 l110 110 110 -110 110 -110 20 20 20 20 -110
    110 -110 110 110 110 111 111 -21 19 c-21 19 -21 18 -130 -90 l-110 -110 -108
    108 c-59 59 -110 107 -113 107 -3 0 -13 -8 -22 -18z"></path>
        <path d="M1257 3242 c-16 -17 -11 -23 88 -122 58 -58 105 -109 105 -115 0 -5
    -47 -57 -105 -115 l-106 -106 21 -19 c21 -19 21 -18 130 90 l110 110 110 -110
    c104 -104 111 -109 127 -92 17 16 12 23 -92 127 l-110 110 110 110 c110 110
    110 110 90 130 l-20 20 -110 -110 -110 -110 -110 110 c-106 106 -112 110 -128
    92z"></path>
        <path d="M2265 3240 c-19 -21 -18 -21 90 -130 l110 -110 -110 -110 c-104 -104
    -109 -111 -92 -127 16 -17 23 -12 127 92 l110 110 110 -110 110 -110 20 20 20
    20 -110 110 -110 110 110 110 c106 106 110 112 92 128 -17 16 -23 11 -127 -93
    l-110 -110 -110 110 -111 111 -19 -21z"></path>
        <path d="M3267 3242 c-16 -17 -11 -23 93 -127 l110 -110 -110 -110 -111 -111
    21 -19 c21 -19 21 -18 130 90 l110 110 110 -110 c104 -104 111 -109 127 -92
    17 16 12 23 -92 127 l-110 110 110 110 c110 110 110 110 90 130 l-20 20 -110
    -110 -110 -110 -110 110 c-106 106 -112 110 -128 92z"></path>
        <path d="M2765 2740 c-19 -21 -18 -21 90 -130 l110 -110 -110 -110 c-108 -109
    -109 -109 -90 -130 l19 -21 111 111 110 110 110 -110 110 -110 20 20 20 20
    -110 110 -110 110 110 110 c110 110 110 110 90 130 l-20 20 -110 -110 -110
    -110 -110 110 -111 111 -19 -21z"></path>
        <path d="M1759 2734 c-11 -13 3 -30 97 -125 l109 -109 -110 -110 c-104 -104
    -109 -111 -92 -127 16 -17 23 -12 127 92 l110 110 110 -110 c104 -104 111
    -109 127 -92 17 16 12 23 -92 127 l-110 110 110 110 c104 104 109 111 92 127
    -16 17 -23 12 -127 -92 l-110 -110 -108 108 c-59 59 -110 107 -113 107 -4 0
    -12 -7 -20 -16z"></path>
        <path d="M3769 2734 c-11 -13 3 -30 97 -125 l109 -109 -110 -110 c-104 -104
    -109 -111 -92 -127 16 -17 23 -12 127 92 l110 110 110 -110 c104 -104 111
    -109 127 -92 17 16 12 23 -92 127 l-110 110 110 110 c104 104 109 111 92 127
    -16 17 -23 12 -127 -92 l-110 -110 -108 108 c-59 59 -110 107 -113 107 -4 0
    -12 -7 -20 -16z"></path>
        <path d="M1257 2232 c-15 -17 -10 -24 88 -122 58 -58 105 -109 105 -115 0 -5
    -47 -57 -105 -115 -101 -101 -105 -107 -87 -123 17 -16 23 -11 127 93 l110
    110 110 -110 111 -111 19 21 c19 21 18 21 -90 130 l-110 110 110 110 c104 104
    109 111 92 127 -16 17 -23 12 -125 -90 -59 -59 -110 -107 -113 -107 -3 0 -53
    47 -110 105 -57 58 -107 105 -110 105 -3 0 -13 -8 -22 -18z"></path>
        <path d="M2259 2234 c-11 -13 3 -30 97 -125 l109 -109 -110 -110 -110 -110 20
    -20 c20 -20 20 -20 130 90 l110 110 110 -110 c106 -106 112 -110 128 -92 16
    17 11 23 -93 127 l-110 110 110 110 111 111 -21 19 c-21 19 -21 18 -130 -90
    l-110 -110 -108 108 c-59 59 -110 107 -113 107 -4 0 -12 -7 -20 -16z"></path>
        <path d="M3267 2232 c-15 -17 -10 -24 93 -127 l110 -110 -110 -110 c-106 -106
    -110 -112 -92 -128 17 -16 23 -11 127 93 l110 110 110 -110 111 -111 19 21
    c19 21 18 21 -90 130 l-110 110 110 110 c104 104 109 111 92 127 -16 17 -23
    12 -127 -92 l-110 -110 -108 108 c-59 59 -110 107 -113 107 -3 0 -13 -8 -22
    -18z"></path>
        <path d="M1757 1732 c-15 -17 -10 -24 93 -127 l110 -110 -110 -110 -111 -111
    21 -19 c21 -19 21 -18 130 90 l110 110 110 -110 110 -110 20 20 20 20 -110
    110 -110 110 110 110 111 111 -21 19 c-21 19 -21 18 -130 -90 l-110 -110 -92
    90 c-51 50 -98 98 -106 108 -17 22 -25 21 -45 -1z"></path>
        <path d="M2767 1732 c-16 -17 -11 -23 88 -122 58 -58 105 -109 105 -115 0 -5
    -47 -57 -105 -115 -101 -101 -105 -107 -87 -123 17 -16 23 -11 122 88 58 58
    109 105 115 105 5 0 57 -47 115 -105 101 -101 107 -105 123 -87 16 17 11 23
    -88 122 -58 58 -105 109 -105 115 0 5 47 57 105 115 101 101 105 107 87 123
    -17 16 -23 11 -122 -88 -58 -58 -109 -105 -115 -105 -5 0 -57 47 -115 105
    -101 101 -107 105 -123 87z"></path>
        <path d="M3767 1732 c-15 -17 -10 -24 93 -127 l110 -110 -110 -110 -111 -111
    21 -19 c21 -19 21 -18 130 90 l110 110 110 -110 110 -110 20 20 20 20 -110
    110 -110 110 110 110 111 111 -21 19 c-21 19 -21 18 -130 -90 l-110 -110 -108
    108 c-59 59 -110 107 -113 107 -3 0 -13 -8 -22 -18z"></path>
        <path d="M1257 1232 c-16 -17 -11 -23 88 -122 58 -58 105 -109 105 -115 0 -5
    -48 -58 -107 -117 -106 -107 -107 -107 -88 -128 l19 -21 113 113 113 113 110
    -110 c104 -104 111 -109 127 -92 17 16 12 23 -92 127 l-110 110 110 110 c110
    110 110 110 90 130 l-20 20 -110 -110 -110 -110 -110 110 c-106 106 -112 110
    -128 92z"></path>
        <path d="M2265 1230 c-19 -21 -18 -22 90 -130 l110 -110 -110 -110 c-104 -104
    -109 -111 -92 -127 16 -17 23 -12 127 92 l110 110 109 -109 c95 -94 112 -108
    125 -97 9 8 16 19 16 25 0 6 -47 59 -105 116 l-106 104 111 111 c105 105 109
    111 93 128 -17 16 -23 12 -128 -93 l-111 -111 -110 111 c-110 111 -110 111
    -129 90z"></path>
        <path d="M3267 1232 c-16 -17 -11 -23 93 -127 l110 -110 -110 -110 -111 -111
    21 -19 c21 -19 21 -18 130 90 l110 110 110 -110 c104 -104 111 -109 127 -92
    17 16 12 23 -92 127 l-110 110 110 110 c110 110 110 110 90 130 l-20 20 -110
    -110 -110 -110 -110 110 c-106 106 -112 110 -128 92z"></path>
        <path d="M1759 724 c-11 -13 3 -30 97 -125 l109 -109 -113 -113 c-106 -107
    -111 -113 -95 -130 17 -16 23 -11 130 95 l113 113 110 -110 c104 -104 111
    -109 127 -92 17 16 12 23 -92 127 l-110 110 110 110 c104 104 109 111 92 127
    -16 17 -23 12 -127 -92 l-110 -110 -108 108 c-59 59 -110 107 -113 107 -4 0
    -12 -7 -20 -16z"></path>
        <path d="M2765 730 c-19 -21 -18 -22 90 -130 l110 -110 -110 -110 c-108 -109
    -109 -109 -90 -130 l19 -21 111 111 110 110 110 -110 110 -110 20 20 20 20
    -102 103 c-57 56 -106 106 -110 110 -4 4 42 57 102 117 108 109 109 109 90
    130 l-19 21 -111 -111 -111 -111 -110 111 c-110 111 -110 111 -129 90z"></path>
        </g>
    </symbol>
</svg>